<?xml version="1.0" encoding="UTF-8"?>
<svg version="1.1" viewBox="0 0 2048 2048" width="128" height="128" xmlns="http://www.w3.org/2000/svg">
<path transform="translate(0)" d="m0 0h2048v2048h-2048z" fill="#F7F7F7"/>
<path transform="translate(0)" d="m0 0h16v131l15 2 4 2v4h-19l-1 11v731l1 105 1 46 19 4 5 3-1 5-3 2h-21l-1 23v222l1 37 15 1 7 4 5 6-2 8-6 5-7 3-12 2-1 515-1 176h-14z" fill="#6E6E6E"/>
<path transform="translate(1353,479)" d="m0 0 7 1 5 4 4 11 5 5 1 2 5-2 3-3h2l1 5 9 3 1 1-1 7-1 2-1 16-2 12-4 4-7 2h-4l1-3 5-5 2-5-6 3h-2l-1 6h-7l-6 5-15-2-1-5 1-16-2-5 3-1 3-9 1-15v-2h-2l-3-9 3-5z" fill="#6E6E6E"/>
<path transform="translate(219,1755)" d="m0 0h30l10 2 5 5v11l-1 15v10l-5 5h-15l-27-4-2-2v-36z" fill="#6E6E6E"/>
<path transform="translate(2015,676)" d="m0 0 5 1 3 1 5-2h16l4 2v45h-11l-2 1h-11l-17-2-6-2 1-5h2l-2-8-2-3-1-9h-2l1-4 1-1-1-10 9-3z" fill="#6E6E6E"/>
<path transform="translate(47,1504)" d="m0 0h36l7 4 1 1v8l-3 7-9 5-10 3-8 11-5 5-4 2h-8l-2-1-2-14-2-8-1-11v-10l1-1z" fill="#6E6E6E"/>
<path transform="translate(40,600)" d="m0 0h19l34 2 2 1 10 1 6 5 1 3v7l-3 1-12 1-3 1h-11l-7 1 2 4 3 3-6 2-4-1-2-6-34-1-1-11-2-2 1-6 4-4z" fill="#6E6E6E"/>
<path transform="translate(2027,376)" d="m0 0h14l2 3 1-2h4v44l-6 2-13-1-9-4-2-5 2-7-8-1-5 1-3-2v-2l4-1 2-3h2l3 3 4 1-4-4-2-1v-2l-8-1-4-3 1-5h3v2l3-2 1-3 3-1 4-4 5 1z" fill="#737373"/>
<path transform="translate(1755,1783)" d="m0 0 9 1 16 5 3 3-13-3 3 10-3-1-5-8-1 3 3 9 7 3h16l4-2 3-7 2 1-1 4-1 2v9l2 5v6l-5 6-2 1h-25l-15 2-5-2-1-6 2-12 6-12v-6l-1-2v-6z" fill="#6E6E6E"/>
<path transform="translate(1655,1408)" d="m0 0h8l3 5 1 16 2 5h4l-3 10-2 4-10 4-2-2h-5l-3 2-7 2-3 6-3 4-1 10-4 1 2-8v-8l-6-7-1-3h-6v-4l2-1-1-12 5-3 4-3 7 2 9 1 2-5 2-9z" fill="#6F6F6F"/>
<path transform="translate(1775,1454)" d="m0 0 2 1v4l9-3 5 1 5 7 1 4-3 5-5 6-3 6-1-3 2-7-5 2-10 10h-3l1 7-5 15-2 9v5l3 3-1 3-9 2-5-4 3-15v-13l-1-2v-8l1-9 1-6 3-8h3l1-3 13-5z" fill="#6F6F6F"/>
<path transform="translate(2025,1283)" d="m0 0 3 1 1 2 6-1 4-1h9v33l-9-1-3 1-10-2-1 7-3 1 1-6-2-1-2 6-4 3-7 1-4-2-2-3 1-4 4-6 1-7-1-5 5-11-3 1-1 2h-7v-3l8-2h10z" fill="#F5F5F5"/>
<path transform="translate(1274,604)" d="m0 0 13 1-2 6v12l5 3 15 2 9 4 7 1 3 5 1 4-9 3-8 5-10-1-5-2-2 7-2 1-2 13-5 5-6 2-2-1 1-16 1-17 2-3h2l-6-9 1-4 3-9h2l-1-6-5-3z" fill="#6E6E6E"/>
<path transform="translate(147,150)" d="m0 0h7l5 3 1 1v8l-4 11-3 8 2 9 1 17 2 2v13l-6-1-8-4-2-9-4-7-14-8-7-7-1-6 3-3 4 2 2 3 12 2h3v-13l1-14 2-5z" fill="#6E6E6E"/>
<path transform="translate(343)" d="m0 0h68l3 7-1 7-3 5-12 3v-2l-14 2h-10l-6-2-12-1-3-3-7-1-3-5-1-7z" fill="#717171"/>
<path transform="translate(1051,776)" d="m0 0 11 1 8 4-1 4-4 8v4l4 1-4 14-5 5-4 1 5-5 1-5-6-4-2 6-7-1-1 8 4 2v2h-6l-2-3 1-1-2-1-2 7-4 4-5-1v-3l-6 1-10-8-2-1 1-3 4-2 4-6h7l6-3 7-8h2v-10z" fill="#6E6E6E"/>
<path transform="translate(1552,124)" d="m0 0 12 2 5 5 2 3-1 4-5 9 1 12 2 12-2 1-11-4-4-5-4-10v-2l-4-2-5-2-10-2-4-2-3-8v-7l5-3 9 1h12z" fill="#6E6E6E"/>
<path transform="translate(165,1883)" d="m0 0h35l9 3 4 4-1 9-3 2-15 2-7 3-2 2-5-1-6-2-27-4-4-5 1-8 7-3z" fill="#6E6E6E"/>
<path transform="translate(1584,1832)" d="m0 0h6l4 2 1 2-1 17-2 10v5l-2 3h2v7l-4 3-4 1-10-3-8-5h-11l-12-3v-3l6-5 16-3 7-3 1-14 3-7 4-3z" fill="#6E6E6E"/>
<path transform="translate(1100,49)" d="m0 0 7 1 8 7 6 9 7 6 8 3 7 1 1 4-2 10 6-1v3l-6 3-5 5-9-1-11-4-1-7-21-1 2-5 6-4 11 2-2-6-3-3-5-2v-2h-2l-6-8-5-5 8-4z" fill="#6E6E6E"/>
<path transform="translate(1152,852)" d="m0 0h8l9 5h2l3-5 2 1-2 5-1 3 10-4 6-3 5 1 1 5-4 4h-4l1 8-2 3 6 2 1 4-5 1-9-2-1-3-2 1-1 3h-2l1-5-9 2-2-1v2l-2 1-1 3 4 2v5h2l1 6-3 2h-8l-5-2 1-8-4-1v-4l4-2h3l-2-7-9-6v-2h7l-3-6-2-6 5-1z" fill="#767676"/>
<path transform="translate(1772,253)" d="m0 0h19l6 1h15l11 3 1 9-2 2-11 1-2 1h-20l-5 1h-31l-6-4-2-3v-6l3-3 7-1z" fill="#6E6E6E"/>
<path transform="translate(968)" d="m0 0h51v9l-3 11-5 4-6 2h-6v-3l-5 2-2-1h-7l-4 3-3-1-1-3-10-2z" fill="#6E6E6E"/>
<path transform="translate(1402,978)" d="m0 0 9 1 13 1 5 1 1 2 5 1 9 1 2 1 2 9-5 3-11-1-9 2-5 2-12 1-5 1-5-5-8-4-4 1-7 1-13-2-2-1 1-3 21-4 11-6z" fill="#6E6E6E"/>
<path transform="translate(296,1332)" d="m0 0h14v3l-4 2-1 7h2l1-2 6 1 3-8 4-1 5 3-3 9-3 6-6 3h6l4 2 13 2v8l-4 3-11 1-13 4-14 1-6-5-1-6 6-10 15-2 6-1v-2l-3 1-1-3-4-2-2 5-5 1v-7l-1-4-5-2-1-3z" fill="#6E6E6E"/>
<path transform="translate(1579,1231)" d="m0 0h9l13 2 12 5 5 3 5 1 1 3-16 4-10-1-3 4h-4l1 3 2 1-2 10-4 9-5 3-7-1-4-4 1-7 2-9v-10l-4-5 1-5z" fill="#707070"/>
<path transform="translate(168,977)" d="m0 0 17 1h14l10 2 5 5v9l-5 5-18 2h-21l-8-2-1-1v-16l2-4z" fill="#6E6E6E"/>
<path transform="translate(2028,978)" d="m0 0h20v43h-2l-2 4-5 9-3 2-4-1 2-4 5-2 4-7v-8l3-8-10 2-13 5-7 5v2l2 1v4l-5-2-8-5-3-4v-3l9-4 10-6 1-8 1-1 2-12z" fill="#707070"/>
<path transform="translate(1099,1884)" d="m0 0 4 1 6 10 4 9 1 4-1 5 2 3 2 11-4 2h-12l-5-5-8-11-2-2-8-1 4-3-1-2-7-1-1 2-3-10-2-3 1-4 6-4h7l6 3 2 5v3l3 2h3l6 12v4h2l-6-27z" fill="#6E6E6E"/>
<path transform="translate(166,652)" d="m0 0 4 1 2 1h13l5 1 1-3 4 1 4 2h9l4 5v9l-5 4-1 4 2 17-3 1-5-3-3-10-3-7v-2h-8v4l-5-2-10-2-7-4-2-4v-7z" fill="#717171"/>
<path transform="translate(124,1706)" d="m0 0h12l5 3 1 6-2 9-6 6-10-1-12-2-16-1-8-3-4-5v-8l13-2z" fill="#6E6E6E"/>
<path transform="translate(1100,677)" d="m0 0 11 3 5 3-2-6 4 2 6 2 8 1h7l5 3 4 5v2l-9 4-15-1-6 4-6 1-13-2-14-4h-12l-7-2 1-4 19-2v-6l4 1v2h6l2-4z" fill="#6E6E6E"/>
<path transform="translate(44,1810)" d="m0 0 9 1 4 2 2 9 2 14h14l5-5h2l5 16v3l-3 1h-35l-10-4-2-5 1-8 12 2-2-8-5-8-1-8z" fill="#6F6F6F"/>
<path transform="translate(670)" d="m0 0h49v11l-3 12-3 1h-8l-4 1-3-2-14-3-9-3-4-5-1-2z" fill="#6E6E6E"/>
<path transform="translate(1183,566)" d="m0 0 2 2 2 4 6 9 3 7v7l-2 2-13 1-19-1-4 1v-2l-10-1-4-4 1-9 2-4h15l14-2 5-5z" fill="#6E6E6E"/>
<path transform="translate(1502,1960)" d="m0 0h39l6 3 1 1v10l-9 2-18 2-7 3h-8l-10-3-3-3-2-12 2-2z" fill="#6E6E6E"/>
<path transform="translate(1724,377)" d="m0 0h10l8 1 5 1 11 9 1 4-5-2v-3l-6 4-4 4-21 1h-24l-3-2-1-15 1-1h17z" fill="#6E6E6E"/>
<path transform="translate(1579,939)" d="m0 0h6l3 3 1 5 5 5-1 3h-4v3h4v-2h2v-4l11 3 10 4 11 8 2 1-1 3h-2v-2l-7 1-3 2-6 1h-18l-10 2h-5l-8-7 2-4 6-5h2l1-14-2-5z" fill="#6E6E6E"/>
<path transform="translate(940,1534)" d="m0 0 14 1 13 2 6 5 6 2-3-5-3-2 1-3h8l2 2 3 12v3l-3 2 2 10 2 8v7l-1 1-8-1-4-2-1-7-1-14-11-2-9-3-11-7-3-6z" fill="#6E6E6E"/>
<path transform="translate(1150,1454)" d="m0 0h7l5 4 2 4v19l5 7h6l-1 3h5l3-3 5-1 5 2 1 2 3 1v2l-9 1-11 1h-9l-2 2-10 1-8-1-3-2 1-4 2-3 1-10-2-15 1-8z" fill="#6E6E6E"/>
<path transform="translate(1503,251)" d="m0 0h2l1 4 12 1 2 2 1 9-1 2-15 1h-28l-9-3v-2l-9 1-6-2-13-1 1-2 24-4 10-3 12-1 15 2z" fill="#6E6E6E"/>
<path transform="translate(1906,1531)" d="m0 0 5 2 6-1 5 3 1 2-1 9-5 5-2 1h-18l-4-1v-2h-4v2l3 1 1 3-3 2-2 15-1 1h-9l-3-3 7-9 2-6v-7l-5-1-4-3 2-4 6-5 14 1z" fill="#6E6E6E"/>
<path transform="translate(1165,251)" d="m0 0 5 1 19 4 12 5 9 2 14 6v1h-16l-14-1-21 1-8-1-4 1-11-3-4-3-5-1 1-5 5-5h14z" fill="#6E6E6E"/>
<path transform="translate(1756,1183)" d="m0 0h10l5 4 4 4 1 8 7 3 3 6v2l4 2 1 6-5 4-6-1-4 2-6-4-2-2-9-3-1-4 6 1 4 1 1-3-1-4h-4l-2 4-5-2-3-6-7-7 1-5z" fill="#717171"/>
<path transform="translate(1496,1356)" d="m0 0 4 1 1 1h7l5-1h12l3 1 5-1 2-1 8 5 5 4 3 5-1 3h-8l-10 2h-26l-9-2-6-3-2-2 1-4 4-3z" fill="#6E6E6E"/>
<path transform="translate(1825,1959)" d="m0 0h13l8 2 4 6-1 5-7 4-4 1h-33l-10-2-2-2v-8l5-4z" fill="#6E6E6E"/>
<path transform="translate(1371,1907)" d="m0 0 17 1 24 2 8 3 1 3v7l-4 3-4 1h-16l-9-1-2 2-11-2-7-2 1-9z" fill="#6E6E6E"/>
<path transform="translate(679,1515)" d="m0 0 4 2-3 14 5 2 3 4 1 5v7h-12l-26 3-7-1-5-4v-5l5-6 6-2 15-1 6-3 5-8z" fill="#6E6E6E"/>
<path transform="translate(121,1077)" d="m0 0h9l5 2 1 4-1 2v26l1 9 1 6-3 3h-9l-6-3-3-3v-10l1-7 1-22 2-6z" fill="#6E6E6E"/>
<path transform="translate(344,1833)" d="m0 0 3 1v2l18-2 19 1 4 1 4 6-1 4-7 4-4 1-16 1h-13l-10-1-5-4 1-7z" fill="#6E6E6E"/>
<path transform="translate(1497,1656)" d="m0 0 2 1v3l9-1h24l7-1 8 4 1 1v7l-7 4-4 1h-29l-16-3-3-2 2-6 4-5z" fill="#6E6E6E"/>
<path transform="translate(859,251)" d="m0 0 10 3 6-1 3-2h6l5 3 6 4 1 5-3 5-11 2h-29l-7-2-5-5-1-4 2-4 7-2z" fill="#6E6E6E"/>
<path transform="translate(1105,978)" d="m0 0h6l6 5v12l1 4-1 4-10-1-23-5-20-2v-4l11-6 6-2 16-2z" fill="#6E6E6E"/>
<path transform="translate(775,659)" d="m0 0 4 1 1 3 4 2 12 9 5 3 6-1 2 3 8 4 11 3v1l-10 2-5 11-9-2h-8v-3l-11-2-24-3-1-3h5v-2h2v2h14l11-2 2-3-8-8-10-5-4 1-1 2h-2v-6z" fill="#6E6E6E"/>
<path transform="translate(1021,1106)" d="m0 0 22 1 22 2 5 4 3 8v3l-4-1-5-2-3 4h-10l-14-2-4 3-14-2-1-2 1-2v-9-4z" fill="#6E6E6E"/>
<path transform="translate(501,654)" d="m0 0h10l3 3-1 4-3 11v27l-3 1-16-4-8-1-2-2h-14l-3-1 2-4 15-5 5 2h3v2l8-2 1-10-1-9 2-11z" fill="#6E6E6E"/>
<path transform="translate(1827,754)" d="m0 0h10l11 5v5l-4 5-1 3-1 24-2 6h-10l-4-4-1-8 1-6v-16l-3-10v-3z" fill="#6E6E6E"/>
<path transform="translate(1246,1833)" d="m0 0 10 1h22l5-1 9 4 3 3v9l-3 3-41-2-9-6 1-9z" fill="#6E6E6E"/>
<path transform="translate(1958,1117)" d="m0 0h5l2 4-2 9 5 1 1 1-1 19-8-1-12-2-20-1-9-4 2-4 6-3 8-3 9 1 10-5 3-11z" fill="#6E6E6E"/>
<path transform="translate(1231,436)" d="m0 0 1 4v8l2 4 20 4 17 3 3 2v2l-9 6-3 1h-29l-8 2-9-1 5-10 3-7 5-14z" fill="#6E6E6E"/>
<path transform="translate(1290)" d="m0 0h29v9l-5 14-1 11 1 5-1 2h-5l-1-3v-6h-8l-3-9-2-2-9-1-1-3 8 1-1-10z" fill="#6E6E6E"/>
<path transform="translate(934,1028)" d="m0 0 5 2 4 4-2 13-2 5h-11l-16-6-8-1-4 1-11-2-1-3 1-2 13-3 5-3 22-4z" fill="#6E6E6E"/>
<path transform="translate(646,1835)" d="m0 0h31l12 2 3 2-1 6-5 6h-37l-6-2-5-4-2-3 1-5 1-1z" fill="#6E6E6E"/>
<path transform="translate(1652,804)" d="m0 0h10l2 4 6 2-1 5-3 3-1 3-1 26-9-2-5-3-10-1-3 2h-9l-7-3-1-4 1-1h26l7-2-2-12-3-2 1-3-1-9z" fill="#717171"/>
<path transform="translate(195,48)" d="m0 0h10l11 8v4l-5 8-1 3v14l3 3 6-1 3-3h2l-1 5-1 1-8 1-5 3-4 1-6-4-4-4 1-4v-11l-4-16v-5z" fill="#6E6E6E"/>
<path transform="translate(1832,153)" d="m0 0h34l6 2 2 1v8l-3 5-32-2h-11l-10-4-3-2 1-4z" fill="#6E6E6E"/>
<path transform="translate(1456,1485)" d="m0 0h9l5 2 4 4 4-2h3l-2 4-3 2-7 2-4 7v18l-2 5-5 4h-5l-5-5v-15l2-2 1-5v-16z" fill="#6E6E6E"/>
<path transform="translate(1955,2032)" d="m0 0h15l3 11v5h-51v-8l3-5z" fill="#6E6E6E"/>
<path transform="translate(627,727)" d="m0 0h5l5 4-3 30v7l2 5h-12l-2-2 1-5 2-5v-9l-1-6-14-1-13-2-6-5 3-2h23l5-5z" fill="#6E6E6E"/>
<path transform="translate(1449,1785)" d="m0 0h26l5 2h9l7 4 6 3-1 3-10 2-12-1-9 2-6 2h-11l-9-2-2-5 3-6z" fill="#6E6E6E"/>
<path transform="translate(1007,627)" d="m0 0 6 1 8 5-2 9-2 4-7 4-13-1-13-6-15 1-1-5 2-2h9l4-3z" fill="#6E6E6E"/>
<path transform="translate(74,899)" d="m0 0 7 1 6 5-1 9-3 24-1 10-2 3-9-2v-18l-3-14v-14l3-3z" fill="#6E6E6E"/>
<path transform="translate(2025,1283)" d="m0 0 3 1 1 2 6-1 4-1h9v3h-8v5h-3l-1-3-5 4-1-3 1-2-10 1-6 13-1 6 5 1v2l7 1 13-3 3-2v7h4v-2l-3-1 4-2 1 1v7l-9-1-3 1-10-2-1 7-3 1 1-6-2-1-2 6-4 3-7 1-4-2-2-3 1-4 4-6 1-7-1-5 5-11-3 1-1 2h-7v-3l8-2h10z" fill="#6E6E6E"/>
<path transform="translate(1231,1358)" d="m0 0 6 2 13 5 26 8 6 2v1l-11-1-15-3h-10l-8 1h-12l-25-4-10-3-1-3 1-2 37-2z" fill="#6E6E6E"/>
<path transform="translate(1653,1106)" d="m0 0h8l5 3 1 6-2 4v10l2 6 1 5-2 11-1 2h-7l-8-5-1-6 3-7v-13l-2-5 1-9z" fill="#6E6E6E"/>
<path transform="translate(525,1758)" d="m0 0 8 6 6 7 4 6 11 9 8 4 4 5-5 5h-8l-12-4-11-1-10-6v-3l13 5h6l2-2-1-4-14-12v-2l-4-2-2-2 1-4z" fill="#6E6E6E"/>
<path transform="translate(1101,1585)" d="m0 0h9l3 2v8l-2 10v8l3 5v7l-2 1h-10l-16-8-11-2 1-3 5 1 8 2h9v-22l-10-3 2-2 9-2z" fill="#6E6E6E"/>
<path transform="translate(495,48)" d="m0 0h10l4 3 1 49-9-3-4-4-1-7v-14l-2-15-1-7z" fill="#6E6E6E"/>
<path transform="translate(1892,631)" d="m0 0h4l-1 3-8 3v5l9-1 8 7-2-7-2-4 3-4 3-1h8l2 5-4 7-1 8 4 8 4 13-14-1v-8l-9-3 1-4 1 2h7v-8l-7-3-3-3-3 1 1 5-3-1v-2l-5-1-6-3-4-5 2-4 3-2z" fill="#6E6E6E"/>
<path transform="translate(1626,1732)" d="m0 0h10l5 2 7 1 6 4h15l6-1 3 3-2 3-10-1-5 3-25 5h-11l-5-8v-4z" fill="#6E6E6E"/>
<path transform="translate(673,1230)" d="m0 0 4 4 6 1 3-2 1 3 6 3 28 5v5l-13-2-8-1h-14l-9 1v-2l-17 1-16-2-2-2 1-4 3-2h15l12-1z" fill="#6E6E6E"/>
<path transform="translate(724,1107)" d="m0 0 16 2 22 1 4 2 1 7-11 2-1 1-23-1-1 3-7 1h-8l1-7 5-10z" fill="#6E6E6E"/>
<path transform="translate(1985,201)" d="m0 0h7l7 3 1 4-2 8-4 4-17-1-14-5-10-2-5-4v-2h18z" fill="#6E6E6E"/>
<path transform="translate(1772,551)" d="m0 0 7 1 20 5 15 5 8 1v3h-9l-7 1-2-2h-7l-6 3-4 5-1 4-1 16h-9l3-4v-18l-7-10z" fill="#6E6E6E"/>
<path transform="translate(1103,1278)" d="m0 0 6 1 5 5-1 9-2 7v12l1 12-3 1h-7l-5-3 2-17v-13l-2-4v-5l3-4z" fill="#6E6E6E"/>
<path transform="translate(1402,377)" d="m0 0 14 2 4 1 2-2 3 4 13 5 2 2-1 5h-12l-10 1-1 1h-11l-10-4-1-5 6-8z" fill="#6E6E6E"/>
<path transform="translate(902,1948)" d="m0 0 5 2 5 10v2l5 1-5 4-1 4-1 15v18l-3 1h-11l4-5v-16l-1-13h-2l2-13 1-9z" fill="#6E6E6E"/>
<path transform="translate(604,1027)" d="m0 0 6 1 4 5 3 1 3-1 2 4 5 1 9-2 2 5-2 1h-7l-5 3-11 1h-2l-2 4-4 2-11-3-4-4v-3l2-1 3-8z" fill="#6E6E6E"/>
<path transform="translate(300,1641)" d="m0 0h3l3 12 5 5 8 5 10 4 5 1v2l-17 2-11 3h-9l-6-3-6-5v-2l12-6 2-2v-14z" fill="#6E6E6E"/>
<path transform="translate(374,1507)" d="m0 0 7 1 1 4-2 23v12h-18l-1 1h-8l-13-4-2-3 2-2 8-1 8 1h12l4-1-1-26z" fill="#6E6E6E"/>
<path transform="translate(1355,1105)" d="m0 0 8 1 7 4-1 4-6 9-1 2-2 26-4-1-4-3v-2l-5-2 1-2 3-1v-21l-5-8 1-4z" fill="#6E6E6E"/>
<path transform="translate(1405,1608)" d="m0 0 9 3 9 5 4 5v2l-10 4-1-1h-8-4l-12-5-7-2-8-1-9-2-1-2 4-1 11 1z" fill="#6E6E6E"/>
<path transform="translate(677,901)" d="m0 0 4 3 2 5 2 14 1 19 1 9-1 1h-14l-3-5 4-2 1-32-5-2v-2l5-2 2-5z" fill="#6E6E6E"/>
<path transform="translate(2043,75)" d="m0 0 3 1 2 4v11l-25 8-6 5-7 10-7 3-4-1 4-7 8-7 15-15 4-8 2-3 1 3z" fill="#6E6E6E"/>
<path transform="translate(245,247)" d="m0 0 13 6 5 1v-2l3-1 2 4 18 7 7 7v1h-7l-24-4h-14l-6-2 1-13z" fill="#6E6E6E"/>
<path transform="translate(1099,354)" d="m0 0 13 3h9l8 3 7 2 9 1v2l-2 1h-17l-1-5h-6l-8 4-1 25 1 5-6 5v7l-3 1 1-8-3-1-1-6 2-13 2-7v-8l-3-3-3-4v-3z" fill="#6E6E6E"/>
<path transform="translate(474,1584)" d="m0 0 7 3h13l16 6 6 4v1l-12 1-6-1-14 5-4 3h-4v-6l-6-2-5-5v-4l7-2z" fill="#6E6E6E"/>
<path transform="translate(251,532)" d="m0 0 7 4 1 3-1 17 1 3 9 6 1 3-12 2-5 2-16-6h-20l-3-2 3-1 27-1 5-1 1-27z" fill="#6E6E6E"/>
<path transform="translate(1280,1229)" d="m0 0h8l5 4-1 8-5 9-5 10v5l6 3-3 2h-7l-3-2v-22l-5-5-2-3 10-8z" fill="#6E6E6E"/>
<path transform="translate(323,100)" d="m0 0 8 1 1 3-1 2v57l3 4v2l-4 1-10-2v-4l2-5 1-30v-23l-1-5z" fill="#6E6E6E"/>
<path transform="translate(341,1233)" d="m0 0 6 1 2 1h30l5 2 8 6v2l-13 3-13-1-21-3-7-5 1-4z" fill="#6E6E6E"/>
<path transform="translate(125,1404)" d="m0 0h8l5 4 2 3-1 8-4 8-4 2h-6l-8-5-3-4v-7l4-5z" fill="#6E6E6E"/>
<path transform="translate(1831,1057)" d="m0 0h8l6 4-2 5-3 3v32l-1 1h-6l-8-5 3-9 2-3 1-13h-2v-12z" fill="#6E6E6E"/>
<path transform="translate(976,1835)" d="m0 0 10 3 5 2 2 7-3 3-18-1-17-2-10-1-7-4v-2l4-1 23-1 9-2z" fill="#6E6E6E"/>
<path transform="translate(1583,1539)" d="m0 0 3 1 2 5 3 13 2 5v7l-3 6-4 4-6-1-7-5 1-6 7-22z" fill="#6E6E6E"/>
<path transform="translate(380,900)" d="m0 0 3 1v12l-1 15v23l-2 1h-10l1-3 1-11v-22l2-12 3-3z" fill="#6E6E6E"/>
<path transform="translate(1904,25)" d="m0 0 5 1 4 2 6-1 5 3 1 7-4 5-6 3h-10l-6-3-5-4v-2h-2l1-5z" fill="#6E6E6E"/>
<path transform="translate(1424,75)" d="m0 0h2l1 4 12-1 3 6 7 5-1 3-10 5-11-2-8-6-10-1-6-3v-3h20v-6z" fill="#6E6E6E"/>
<path transform="translate(803,968)" d="m0 0 4 1 2 3-1 5-4 2-2 9 7 1 2-7 2-1v7l-2 7-5 2h-5l-4-4h-13l-5 2h-6l-3-2v-6l2-3 8-2 7 1 6 2v2h4l3-8 2-10z" fill="#6E6E6E"/>
<path transform="translate(67)" d="m0 0h18l1 10-1 6v7l-4 4-7-1-6-5-2-6v-12z" fill="#6E6E6E"/>
<path transform="translate(2012,1600)" d="m0 0 4 2 6 12-1 7-3 6-2 2h-7l-6-3-5-6v-2l2-1 4-11z" fill="#6E6E6E"/>
<path transform="translate(1600)" d="m0 0h19l-1 10-3 18-7-1-9-4v-14z" fill="#6E6E6E"/>
<path transform="translate(1533,427)" d="m0 0 8 2 1 1v12l-5 11-1 7v8l5 2v3h-8l-9-3v-2l7-1-2-19-2-5-2-8v-4z" fill="#6E6E6E"/>
<path transform="translate(1230,124)" d="m0 0h6l5 5 5 6-1 5-8 6-7 2-9-5-4-5 2-5 9-8z" fill="#6E6E6E"/>
<path transform="translate(802,49)" d="m0 0 7 1 4 4-1 6-4 9-1 20v6l-7 3-2-13 1-6v-14l-3-7 1-5z" fill="#6E6E6E"/>
<path transform="translate(598,1655)" d="m0 0 4 1 3 3 14 2 17 5 4 3v3l-15-1-5-1h-9l-5 2h-10l-4-2-3-5-2-2h7l4-4z" fill="#6E6E6E"/>
<path transform="translate(2011,1905)" d="m0 0 7 1 4 6 1 7-3 7-7 4-11-2-3-3 2-10 4-6z" fill="#6E6E6E"/>
<path transform="translate(1727,700)" d="m0 0 2 1v3l9 2 6 4v6l-1 2 3 3-1 4-5-1-3-1-10 2-9-5-1-4 6-8 4-2-1-4z" fill="#6E6E6E"/>
<path transform="translate(167,1588)" d="m0 0h13l7 1 7-1 3 3 7 2 6 4 3-3h2l1 4-5 2-5-3 1 9-1 11-2 3-15 2-4-2v-2l-2-1h11l8-4 2-5v-7l-3-3v-2l-8-2h-4l-2 5-1-2-1-4-4 4-3 6-3-1-5-5-4-3v-5z" fill="#6E6E6E"/>
<path transform="translate(1707,1908)" d="m0 0h6l6 4 1 2v7l-5 6-2 1h-9l-9-3-3-2 1-5 5-6 5-3z" fill="#6E6E6E"/>
<path transform="translate(1926,1737)" d="m0 0 34 1 8 1 1 4-3 3-8 2h-8l-2-3-7 1-6 3h-10l-4-2 1-5z" fill="#6E6E6E"/>
<path transform="translate(1884,1856)" d="m0 0 6 1 6 5-1 10-4 6-4 4-4-1-10-5 2-13 5-5z" fill="#6E6E6E"/>
<path transform="translate(1048,1409)" d="m0 0h3v3l17 1 1 1v8l-12 1-33-6-7-3v-3l2-1 16 1h12z" fill="#6E6E6E"/>
<path transform="translate(1958,802)" d="m0 0 6 1 3 4 2 8-1 8-5 5-6-1-8-5-2-6 4-8z" fill="#6E6E6E"/>
<path transform="translate(1644,2031)" d="m0 0h3v17h-26v-12l7-3z" fill="#6E6E6E"/>
<path transform="translate(1530,753)" d="m0 0 5 1 8 5 2 3v7l-4 4-8 2-9-3-2-2v-12l5-4z" fill="#6E6E6E"/>
<path transform="translate(145,475)" d="m0 0h1l1 6h11l6 9v2l-8 4-1 1-10-1-8-4-16-6v-2h18l5-1v-7z" fill="#6E6E6E"/>
<path transform="translate(74,300)" d="m0 0 5 2 21 12 6 3-2 2-8-1h-13l-4 2h-6l-5-3-1-2v-6z" fill="#6E6E6E"/>
<path transform="translate(551,1155)" d="m0 0 4 1 7 6 9 2 7-2 3 2h11l-1 4-6 2-9 1-1-1-15-1-1 3-4 2h-8l-4-2 5-9z" fill="#6E6E6E"/>
<path transform="translate(1358,175)" d="m0 0 5 2 5 5v6l-3 7-4 6-2 10-4 2h-3l3-6v-8l-5-10-2-5 7-8z" fill="#6E6E6E"/>
<path transform="translate(731,2010)" d="m0 0 8 1 1 1v9l-4 9-1 1h-7l-7-2-4-11 2-5z" fill="#6E6E6E"/>
<path transform="translate(855,1766)" d="m0 0 4 2-2 5-7 8-3 6-9 10-5 3-12-1-9-5 4-3 6-4 13-2 5 1 8-6z" fill="#6E6E6E"/>
<path transform="translate(1279,1531)" d="m0 0h6l2 2v11l-2 7v18l3 4v3h-9l-1-2-1-25-3-7 1-7z" fill="#6E6E6E"/>
<path transform="translate(1956,1407)" d="m0 0h7l3 3-2 11-1 3v9l4 10-2 4h-9l-2-1v-5l4-2-3-9-3-11-1-4z" fill="#6E6E6E"/>
<path transform="translate(868,571)" d="m0 0 3 1-4 2-1 5-5 15-2 2-10 1-6-4-1-4 5-8 10-5z" fill="#6E6E6E"/>
<path transform="translate(102,2014)" d="m0 0h37v8h-47l-1-1v-5l1-1z" fill="#6E6E6E"/>
<path transform="translate(1905,328)" d="m0 0 6 1 7 2 3 4v7l-4 4h-9l-9-3-7-6 4-3z" fill="#6E6E6E"/>
<path transform="translate(1701,1008)" d="m0 0 7 1 2 1 22 3 10 3 10 4v1l-22-1h-15l-7 1-7-3-3-2 1-5z" fill="#6E6E6E"/>
<path transform="translate(1677,1612)" d="m0 0h22l13 1 10 3 2 3-3 2-7 1-24-4-2-1-1 3h-15l-2-3v-3z" fill="#6E6E6E"/>
<path transform="translate(299,1030)" d="m0 0 8 4 10 2 1 1h9l9 3 2 3-5 1h-22l-14 2-6-3-1-4 3-3 5-2z" fill="#6E6E6E"/>
<path transform="translate(928,123)" d="m0 0 6 2 6 7 1 5-4 7-3 2h-7l-3-3-2-6-7-2-1-2 9-4 3-5z" fill="#6E6E6E"/>
<path transform="translate(980,929)" d="m0 0 5 1 4 4 1 2v10l-5 4-7 1-6-4-2-3v-7l5-6z" fill="#6E6E6E"/>
<path transform="translate(1729,655)" d="m0 0h10l5 4v8l-5 7-10 3-6-12-1-4z" fill="#6E6E6E"/>
<path transform="translate(1364,778)" d="m0 0 2 2-4 5-1 10v11l4 8 2 1-2 5-7 4-7-1-1-4 2-4v-10l5-15 1-6-2-3z" fill="#6E6E6E"/>
<path transform="translate(781,1884)" d="m0 0 8 2 5 4 3 4-1 5-2-1v-2l-7 3-4 3h-6l-8-5 1-6 6-5z" fill="#6E6E6E"/>
<path transform="translate(1731,76)" d="m0 0h7l4 3 2 11-4 4-2 1h-7l-8-4-3-3 1-4z" fill="#6E6E6E"/>
<path transform="translate(430,1708)" d="m0 0 7 2 3 2-1 6-4 8-3 3-5-1-7-4-3-3v-5l7-6z" fill="#6E6E6E"/>
<path transform="translate(433,788)" d="m0 0 1 4-1 2v13l5 1-1 7-4 7-1 1h-8l-7-4 1-3 4-4 4-10 2-6z" fill="#6E6E6E"/>
<path transform="translate(850,856)" d="m0 0h10l4 5 1 8-5 5-5 1-10-5-3-3 1-4z" fill="#6E6E6E"/>
<path transform="translate(251,1154)" d="m0 0h5l6 9 1 5-4 6-3 2h-6l-8-5v-2h2l2-10z" fill="#6E6E6E"/>
<path transform="translate(751,181)" d="m0 0 9 1 4 2 1 6-4 3-9 1-8-4-5-1-16-1-2-2 1-4h8l4 1h16z" fill="#6E6E6E"/>
<path transform="translate(1835,1370)" d="m0 0 2 1 5 21-1 10-1 2-11-2-2-2 1-9 5-15z" fill="#6E6E6E"/>
<path transform="translate(423,1111)" d="m0 0 40 1 1 3-1 3-6 1h-14l-2-4-2 4-12 2h-9l2-6z" fill="#6E6E6E"/>
<path transform="translate(1531,1045)" d="m0 0 3 4 3 6 4 1 2 10-2 2-4-1v11l-2 11-3-3-2-6 2-2-1-7-4-5v-2l-3-1 1-4 5-2v-11z" fill="#6E6E6E"/>
<path transform="translate(1708,1304)" d="m0 0h5l5 3 2 5-5 9-3 7-6-3-5-5-2-3 1-6z" fill="#6E6E6E"/>
<path transform="translate(1452,1171)" d="m0 0h2l3 9 7 1 4 1v2l2 1-1 5-4 6-9 3-4-4-1-2-6-2 1-3 4-2 2-8z" fill="#6F6F6F"/>
<path transform="translate(1272)" d="m0 0h18l3 13-1 5-11-1-6-4-4-7z" fill="#F8F8F8"/>
<path transform="translate(551,1458)" d="m0 0h7l2 1v5l-4 8-1 5 2 20-4 2-6-3v-5l4-6h-2l-1-20 1-6z" fill="#6E6E6E"/>
<path transform="translate(1482,579)" d="m0 0 5 2 9 7-2 5-15 4h-8l-1-5 6-11z" fill="#6E6E6E"/>
<path transform="translate(928,427)" d="m0 0h8v4l-3 20v13l3 2-1 4-2 1h-7l-1-2 1-12 1-10v-14l-1-5z" fill="#6E6E6E"/>
<path transform="translate(726,1411)" d="m0 0 7 1 9 4 10 2 10 4 7 3v2l-8-1-16-4h-19l-6-3-2-3v-3z" fill="#6E6E6E"/>
<path transform="translate(1833,1660)" d="m0 0h6v11l-1 7v26l-1 1h-10l2-5 1-1 1-7v-31z" fill="#6E6E6E"/>
<path transform="translate(304,1934)" d="m0 0 4 1-3 15v18l4 1 1 2-3 4-8 1-3-2 1-9 3-25 1-4z" fill="#6E6E6E"/>
<path transform="translate(1355,1712)" d="m0 0 5 1 3 9v3h-2v19l3 6v3l-6-1-5-3-4-6v-3l6-2v-12l-1-8-4-2-1-3z" fill="#6E6E6E"/>
<path transform="translate(1911,1238)" d="m0 0 4 1 1 7-22 4-2 1-2 9-1 9-2 2h-7l-2-3 5-7 2-12-1-3h10l9-3z" fill="#6E6E6E"/>
<path transform="translate(747,806)" d="m0 0 13 2 5 2-1 8-5 4h-6l-15-8v-4z" fill="#6E6E6E"/>
<path transform="translate(603,1935)" d="m0 0 7 1 2 2-1 6-3 5-1 6v17l-6 2-2-1 1-5 1-1 1-11-2-3-1-5v-11z" fill="#6E6E6E"/>
<path transform="translate(469,1285)" d="m0 0 16 2 14 1 12 3 1 4h-21l-3-1h-16l-3-1-1-7z" fill="#6E6E6E"/>
<path transform="translate(977,1227)" d="m0 0 4 5 8 3 1-2v3l5 2 2 1v2l-7 1-4 5-6 2h-4l-6-9-2-1v-2l7-3z" fill="#6E6E6E"/>
<path transform="translate(1059,483)" d="m0 0 3 2-1 4-4 6v10l6 7 2 1-3 5-15 5h-2l-4-6h3l3 3 2-4h2v-11l1-12z" fill="#6E6E6E"/>
<path transform="translate(894,1660)" d="m0 0 13 1 5 2 7 2 2 3 10 4-1 2-10-2h-21l-7-6 1-5z" fill="#6E6E6E"/>
<path transform="translate(1327,2012)" d="m0 0h8l1 7v29h-7z" fill="#6E6E6E"/>
<path transform="translate(1452,887)" d="m0 0h35l7 3 1 3-16 3-6-1-1-2-3-1h-12l-10 1 1-5z" fill="#6E6E6E"/>
<path transform="translate(1959,501)" d="m0 0 4 2 4 7 1 7-4 4-5 1-8-4-3-4 2-5z" fill="#6E6E6E"/>
<path transform="translate(1280,931)" d="m0 0 5 1 5 3 1 5-3 6-4 3h-6l-7-6-1-3 7-8z" fill="#6E6E6E"/>
<path transform="translate(1177,881)" d="m0 0 3 2 6 2 1 2 1 9 4 1v2l-5 2-9-1-4-2-5 1 2-5 1-3h4l-1-4-5 1-2-4 1-2h2v2l6 1z" fill="#6E6E6E"/>
<path transform="translate(431,2010)" d="m0 0h5l2 2-1 7-4 8-4 3-6-4-4-5-1-4 1-2z" fill="#6E6E6E"/>
<path transform="translate(1e3 315)" d="m0 0 2 2 3 11 7 5-2 6-6 5-8-1-4-2 1-4 4-5 2-5v-11z" fill="#6E6E6E"/>
<path transform="translate(625,124)" d="m0 0 9 6 4 5-1 10-7-1-5-2-4-4-5-2v-3l6-4z" fill="#6E6E6E"/>
<path transform="translate(546,233)" d="m0 0 5 2 10 13 7 7 6 3 10 2 5 5v3l-10-2-11-6-16-2-1-2h9v-3l-14-16z" fill="#6E6E6E"/>
<path transform="translate(1325,1409)" d="m0 0 12 4h15l-4 6-5 1-3 2v2l7-1-3 5-6 1-2-5-5-2-5-5-2-3z" fill="#6E6E6E"/>
<path transform="translate(1601,634)" d="m0 0h8l6 3 1 3-2 5-4 1-3-4-8-1v-3l-5 1h-10l-1 3-8-1-4-2 1-4 10 1h9z" fill="#6E6E6E"/>
<path transform="translate(502,353)" d="m0 0 5 1 1 1-1 10-1 2-1 16 2 5v5l-1 1h-6l-2-2 2-15 1-23z" fill="#6E6E6E"/>
<path transform="translate(929,746)" d="m0 0 2 3 2 6 7 3-2 9-2 4-7 1-5-4-1-7 4-2 1-12z" fill="#6E6E6E"/>
<path transform="translate(678,304)" d="m0 0h6l3 5v13l-4 1-9-6-4-5 2-4z" fill="#6E6E6E"/>
<path transform="translate(555,555)" d="m0 0 4 2 7 8-1 3-7 3-7-1-6-4-1-5 4-3z" fill="#6E6E6E"/>
<path transform="translate(1833,1331)" d="m0 0 5 1 1 1v15l-4 11-4-5-4-7v-6z" fill="#6E6E6E"/>
<path transform="translate(1230,1033)" d="m0 0h9l-5 10-1 6v24l-1 1h-11l1-2 6-1-1-12-1-4 3-10v-6l-1-4z" fill="#6E6E6E"/>
<path transform="translate(426,1410)" d="m0 0 6 1 7 4 1 3-8 7-6-1-8-5 1-5 4-3z" fill="#6E6E6E"/>
<path transform="translate(1195,1661)" d="m0 0h7l16 4 19 6v1h-7l-11-3-6 1-5 2-7-1-1-3-4-2z" fill="#6E6E6E"/>
<path transform="translate(677,629)" d="m0 0 4 2 9 5 12 3 26 10-4 1-18-6-14-5h-6l-8 5-3-1-1-7z" fill="#6E6E6E"/>
<path transform="translate(2029,383)" d="m0 0 9 1v4l-8 5-1 2-4-1v-2h-16l-2-3 1-1 11-2 4-2z" fill="#F7F7F7"/>
<path transform="translate(199,353)" d="m0 0h6l4 4-1 9-4 10-3 2-1-1-2-12v-10z" fill="#6E6E6E"/>
<path transform="translate(1355,1429)" d="m0 0 5 1-1 9 5 6-1 6-6-2-13-13v-4l4 1 8 4z" fill="#6E6E6E"/>
<path transform="translate(303,733)" d="m0 0 8 1 10 3 2 2-6 2-9 1h-10l-7-3 1-4z" fill="#6E6E6E"/>
<path transform="translate(1406,1285)" d="m0 0 5 2v8l-2 16 2 4v6l-7-1-2-2 1-7 2-3 1-11-2-6 1-5z" fill="#6E6E6E"/>
<path transform="translate(851,552)" d="m0 0 11 1 10 3 6 3 9 2 6 5-2 3-10-1-7 3-3-1 6-7v-2h-9l-4-4-13-3z" fill="#6E6E6E"/>
<path transform="translate(805,355)" d="m0 0h3v8l-3 7-1 14 4 3-1 5-7 1-1-1v-7l1-5v-14z" fill="#6E6E6E"/>
<path transform="translate(296,1332)" d="m0 0h14v3l-4 2v7l1 4-3 4h-4v-7l-1-4-5-2-1-3z" fill="#6F6F6F"/>
<path transform="translate(295,435)" d="m0 0 23 3 2 1v-2l3-2h8l3 1 2 7-7 1-10-2-23-5z" fill="#6E6E6E"/>
<path transform="translate(1030,2009)" d="m0 0 4 3 1 10v9l-5 1-3-9-3-4 1-6z" fill="#6E6E6E"/>
<path transform="translate(1240,756)" d="m0 0 1 2-6 11-3 2-12-2 2-4 9-7z" fill="#6E6E6E"/>
<path transform="translate(476,1890)" d="m0 0h8l7 2 2 3-6 3-4 1h-7l-9-4 3-3z" fill="#6E6E6E"/>
<path transform="translate(768,1585)" d="m0 0 11 4 16 3h7l7 2 4 5h-10l-7-4-16-1-8-3-4-4z" fill="#6E6E6E"/>
<path transform="translate(173,1286)" d="m0 0 12 2 3 3v3l-7 4-6-1-5-4-1-5z" fill="#6E6E6E"/>
<path transform="translate(416,181)" d="m0 0h8l15 3 17 2 5 2 1 3-4 1-24-5-16-3z" fill="#6E6E6E"/>
<path transform="translate(1148,1160)" d="m0 0 22 3 17 2 6 3-1 4-8-1-13-4-23-4z" fill="#6E6E6E"/>
<path transform="translate(1408,680)" d="m0 0 4 1 4 5v3h-2l-2 4-3 2h-5l-4-4 1-4z" fill="#6E6E6E"/>
<path transform="translate(251,1459)" d="m0 0 4 1 5 10-1 4-7 1-5-4-1-5 2-5z" fill="#6E6E6E"/>
<path transform="translate(1053,205)" d="m0 0h5l7 5-1 4-4 2h-7l-8-6v-2z" fill="#6E6E6E"/>
<path transform="translate(554,856)" d="m0 0 4 1 2 3-1 9-2 4-4 1-4-3 1-8 3-6z" fill="#6E6E6E"/>
<path transform="translate(1204,1962)" d="m0 0h6l5 5-1 4-6 2h-6l-4-3 1-5z" fill="#6E6E6E"/>
<path transform="translate(254,855)" d="m0 0 5 3 1 5-6 7h-5l-2-2v-7z" fill="#6E6E6E"/>
<path transform="translate(373,305)" d="m0 0h6l5 5v5l-4 3-6-1-3-3v-7z" fill="#6E6E6E"/>
<path transform="translate(1907,926)" d="m0 0h4l1 2v16l-1 10-4-1-2-4 1-1z" fill="#6E6E6E"/>
<path transform="translate(805,1286)" d="m0 0 5 1 1 7-1 4-9 1-4-4 1-4z" fill="#6E6E6E"/>
<path transform="translate(1655,508)" d="m0 0 7 1 4 4 4 1v2l-10 2-9-2-2-2 1-4z" fill="#6E6E6E"/>
<path transform="translate(1152,1788)" d="m0 0h8l4 4-1 5-4 2h-5l-5-5v-4z" fill="#6E6E6E"/>
<path transform="translate(856,1157)" d="m0 0 3 1 1 5v7l-6 3-5-1-1-2 7-12z" fill="#6E6E6E"/>
<path transform="translate(728,1713)" d="m0 0 5 1v11l-3 5-4-5-2-3 1-6z" fill="#6E6E6E"/>
<path transform="translate(1363,518)" d="m0 0 4 1 4 7v9l-4-1-1-7-2 4-4-1v-7l1-4z" fill="#F8F8F8"/>
<path transform="translate(888,1356)" d="m0 0 6 1 16 6 26 6 1 3-9-1-13-4-16-4-11-6z" fill="#6E6E6E"/>
<path transform="translate(1326,1712)" d="m0 0 10 1 6 2-2 4-3 5h-3l-5-6-3-3z" fill="#6E6E6E"/>
<path transform="translate(1177,881)" d="m0 0 5 5 2 3v5l-3 2-5-3-1-6-5 1-2-4 1-2h2v2l6 1z" fill="#6E6E6E"/>
<path transform="translate(1551,1063)" d="m0 0 14 1v4l-6 1-3-1h-8l-3 3-4-1 4-5z" fill="#6E6E6E"/>
<path transform="translate(1778,887)" d="m0 0h8l7 4 8 2-1 2-21-2-3-3-3-2z" fill="#6E6E6E"/>
<path transform="translate(591,1361)" d="m0 0 7 1 10 3 12 2 13-1 3 2-1 3-10-1-24-4-9-3z" fill="#6E6E6E"/>
<path transform="translate(1258,735)" d="m0 0h6v5l-6 4-9 3 2-5 5-6z" fill="#6E6E6E"/>
<path transform="translate(754,508)" d="m0 0 8 2-2 5-3 3h-5l-4-4 1-3z" fill="#6E6E6E"/>
<path transform="translate(1772,1461)" d="m0 0h2l-2 5-1 2h-2l-1 3-6 4-2-2v-6l6-4z" fill="#F8F8F8"/>
<path transform="translate(69,1814)" d="m0 0h7v7l-2 2h-3l-2 2-2 6-2 1 1-9z" fill="#6E6E6E"/>
<path transform="translate(1272)" d="m0 0h5l1 5 4 9 2 3-4-1-5-3-4-7z" fill="#6E6E6E"/>
<path transform="translate(2045,1012)" d="m0 0 1 4 2-1v6h-2l-2 4-5 9-3 2-4-1 2-4 5-2 4-7v-8z" fill="#6E6E6E"/>
<path transform="translate(1306,322)" d="m0 0h1l1 17-8 2h-4l1-5 9-3z" fill="#6E6E6E"/>
<path transform="translate(2034,693)" d="m0 0h1l-1 23-4 1-1-5 3-2-2-4-2-1v-5l1 2h4l-2-7z" fill="#F8F8F8"/>
<path transform="translate(1090,1899)" d="m0 0 5 2 3 8 3 4v2l-5-2-7-8v-5z" fill="#F8F8F8"/>
<path transform="translate(1364,501)" d="m0 0h6l-1 9-3 3-4-1 1-10z" fill="#F8F8F8"/>
<path transform="translate(1357,1417)" d="m0 0h7l2 3-4 6h-2v-2l-8-2z" fill="#6E6E6E"/>
<path transform="translate(1909,905)" d="m0 0 3 1-1 19-4-1v-17z" fill="#6E6E6E"/>
<path transform="translate(1029,1716)" d="m0 0 4 1 1 3-1 7-3 1-3-3v-7z" fill="#6E6E6E"/>
<path transform="translate(1609,321)" d="m0 0 2 2v19l-4 2-2-1 1-5 2-2z" fill="#6E6E6E"/>
<path transform="translate(1653,208)" d="m0 0 7 1 3 5-2 1h-7l-2-2z" fill="#6E6E6E"/>
<path transform="translate(137,188)" d="m0 0h3l1 4 8-1v5l-5 1-7-4-1-3z" fill="#F8F8F8"/>
<path transform="translate(1036,529)" d="m0 0 3 1-4 2-4 8-3 2h-5l3-5z" fill="#6E6E6E"/>
<path transform="translate(1572,1859)" d="m0 0 2 1-1 5-1 2h-10l2-4z" fill="#F8F8F8"/>
<path transform="translate(1308,309)" d="m0 0h6l-6 11-2-1-1-7z" fill="#6E6E6E"/>
<path transform="translate(1473,1159)" d="m0 0h5l3 4-4 2-2 5-2-1v-5l-1-4z" fill="#6E6E6E"/>
<path transform="translate(628,436)" d="m0 0 5 1 1 4-2 4-4-1-1-1v-6z" fill="#6E6E6E"/>
<path transform="translate(1764,1204)" d="m0 0 4 1 2 6-4 2-5-3z" fill="#F8F8F8"/>
<path transform="translate(857,1459)" d="m0 0 4 1v3l-4 6-3 2 1-8z" fill="#6E6E6E"/>
<path transform="translate(1179,885)" d="m0 0 3 1 2 3v5l-3 2-5-3 1-2 1 1z" fill="#F8F8F8"/>
<path transform="translate(1608,307)" d="m0 0h5l-2 13h-2l-1-4z" fill="#6E6E6E"/>
<path transform="translate(1279)" d="m0 0h9l-2 1 1 10-8-8z" fill="#6E6E6E"/>
<path transform="translate(1009,1240)" d="m0 0 11 1 4 3-18-1-2-2z" fill="#6E6E6E"/>
<path transform="translate(851,1488)" d="m0 0h5l1 6-5 1-2-3z" fill="#6E6E6E"/>
<path transform="translate(2020,400)" d="m0 0 5 1 3 3-3 6-2-1v-5h-2z" fill="#F4F4F4"/>
<path transform="translate(424,509)" d="m0 0h6l2 2v3l-8-1z" fill="#6E6E6E"/>
<path transform="translate(1104,70)" d="m0 0h2l1 5h-8l-3-3 5-1z" fill="#6E6E6E"/>
<path transform="translate(379,609)" d="m0 0 2 1-1 7-4 1v-7z" fill="#6E6E6E"/>
<path transform="translate(1167,551)" d="m0 0 7 1 2 8h-2l-4-5-3-2z" fill="#6E6E6E"/>
<path transform="translate(1837,459)" d="m0 0 4 2v2l-2 1h-8l1-3z" fill="#6E6E6E"/>
<path transform="translate(1285,630)" d="m0 0 3 1 1 5-2 3-3-1v-7z" fill="#F8F8F8"/>
<path transform="translate(1291,32)" d="m0 0 8 1 3 3 3 1v2l-9-2z" fill="#6E6E6E"/>
<path transform="translate(1772,1459)" d="m0 0m-2 1h2l-1 3-6 2-5 2 2-4z" fill="#6E6E6E"/>
<path transform="translate(1491,1166)" d="m0 0 4 2-1 3-8 1 2-5z" fill="#6E6E6E"/>
<path transform="translate(839,690)" d="m0 0 5 2-1 3-6 1 1-4z" fill="#6E6E6E"/>
<path transform="translate(176,1608)" d="m0 0 3 4 2 6-5-1z" fill="#6E6E6E"/>
<path transform="translate(353,5)" d="m0 0h2l1 8v3l-5-6v-3h2z" fill="#F8F8F8"/>
<path transform="translate(508,983)" d="m0 0 1 3-3 6-4 1 2-5z" fill="#6E6E6E"/>
<path transform="translate(1286,640)" d="m0 0h3v6l-3 2-2-4z" fill="#F8F8F8"/>
<path transform="translate(1100,417)" d="m0 0 6 3v2h-7l-1-3z" fill="#6E6E6E"/>
</svg>
